# xmcd
#
# Track frame offsets: 
#        150
#        19472
#        48444
#        62353
#        83185
#        109451
#        139435
#        166019
#        178209
#        193917
#        209948
#        226462
#        241127
#        250352
#        277105
#
# Disc length: 4018 seconds
#
# Revision: 0
# Processed by: cddbd v1.5.2PL0 Copyright (c) Steve Scherf et al.
# Submitted via: ExactAudioCopy v0.95b4
#
DISCID=ea0fb00f
DTITLE=Various Artist - A Tribute To Billy Joe Shaver - Live {U.S. Pressing}
DYEAR=2005
DGENRE=Americana
TTITLE0=Bily Joe Shaver With Diamondback Texas - Georgia As A Fast Tra
TTITLE0=in
TTITLE1=Guy Clark - Randall Knife
TTITLE2=Bruce Robison With Kelly Willis - Ride Me Down Easy
TTITLE3=Jimmie Dale Gilmore With Colin Gilmore - Hearts-A-Bustin'
TTITLE4=Robert Earl Keen - Bottom Dollar
TTITLE5=Todd Snider - Waco Moon
TTITLE6=Joe Ely - Honky Tonk Masquerade
TTITLE7=Dale Watson - You Asked Me To
TTITLE8=Jack Ingram - Ava Adelle
TTITLE9=Cory Morrow - Live Forever
TTITLE10=Rodney Hayden - Black Rose
TTITLE11=The Geezinslaws - Bad Rock And Roll
TTITLE12=Billy Joe Shaver - You Wouldn't Know Love
TTITLE13=Billy Joe Shaver - Try And Try Again
TTITLE14=Billy Joe Shaver - Tramp On Your Street
EXTD=
EXTT0=
EXTT1=
EXTT2=
EXTT3=
EXTT4=
EXTT5=
EXTT6=
EXTT7=
EXTT8=
EXTT9=
EXTT10=
EXTT11=
EXTT12=
EXTT13=
EXTT14=
PLAYORDER=
